<svg xmlns="http://www.w3.org/2000/svg" width="1024" height="1024" viewBox="0 0 1024 1024">
  <defs>
    <linearGradient id="bg" x1="120" y1="120" x2="904" y2="904" gradientUnits="userSpaceOnUse">
      <stop offset="0" stop-color="#0F766E"/>
      <stop offset="0.55" stop-color="#14532D"/>
      <stop offset="1" stop-color="#111827"/>
    </linearGradient>
    <linearGradient id="bell" x1="280" y1="180" x2="760" y2="820" gradientUnits="userSpaceOnUse">
      <stop offset="0" stop-color="#FDE68A"/>
      <stop offset="1" stop-color="#F97316"/>
    </linearGradient>
  </defs>
  <rect x="72" y="72" width="880" height="880" rx="208" fill="url(#bg)"/>
  <rect x="212" y="224" width="600" height="560" rx="72" fill="#F8FAFC"/>
  <rect x="212" y="224" width="600" height="128" rx="72" fill="#0F172A"/>
  <rect x="212" y="288" width="600" height="64" fill="#0F172A"/>
  <circle cx="336" cy="448" r="42" fill="#14B8A6"/>
  <circle cx="512" cy="448" r="42" fill="#14B8A6"/>
  <circle cx="688" cy="448" r="42" fill="#14B8A6"/>
  <circle cx="336" cy="604" r="42" fill="#CBD5E1"/>
  <circle cx="512" cy="604" r="42" fill="#CBD5E1"/>
  <circle cx="688" cy="604" r="42" fill="#CBD5E1"/>
  <path d="M648 712H376c-26 0-38-32-18-49 38-33 52-80 52-139 0-78 46-134 102-134s102 56 102 134c0 59 14 106 52 139 20 17 8 49-18 49Z" fill="url(#bell)"/>
  <circle cx="512" cy="740" r="42" fill="#F97316"/>
  <path d="M468 388c0-24 20-44 44-44s44 20 44 44" stroke="#FDE68A" stroke-width="30" stroke-linecap="round" fill="none"/>
</svg>
