<svg xmlns="http://www.w3.org/2000/svg" width="1600" height="900" viewBox="0 0 1600 900">
  <defs>
    <linearGradient id="bg" x1="0" y1="0" x2="1600" y2="900">
      <stop offset="0" stop-color="#F8FAFC"/>
      <stop offset="1" stop-color="#DDFDF4"/>
    </linearGradient>
    <filter id="shadow" x="-20%" y="-20%" width="140%" height="140%">
      <feDropShadow dx="0" dy="24" stdDeviation="32" flood-color="#0F172A" flood-opacity="0.2"/>
    </filter>
  </defs>
  <rect width="1600" height="900" fill="url(#bg)"/>
  <text x="140" y="150" font-family="Avenir Next, Helvetica, sans-serif" font-size="58" font-weight="800" fill="#0F172A">Simple GitHub release install</text>
  <text x="140" y="202" font-family="Avenir Next, Helvetica, sans-serif" font-size="27" fill="#475569">Open the DMG, then drag the app to Applications.</text>
  <g filter="url(#shadow)" transform="translate(330 270)">
    <rect width="940" height="430" rx="30" fill="#FFFFFF"/>
    <rect x="0" y="0" width="940" height="62" rx="30" fill="#F1F5F9"/>
    <text x="380" y="40" font-family="Avenir Next, Helvetica, sans-serif" font-size="22" font-weight="700" fill="#334155">Meeting Reminder 0.3.0</text>
    <g transform="translate(170 150)">
      <rect x="0" y="0" width="128" height="128" rx="30" fill="#0F766E"/>
      <rect x="26" y="30" width="76" height="76" rx="12" fill="#F8FAFC"/>
      <rect x="26" y="30" width="76" height="22" rx="8" fill="#0F172A"/>
      <path d="M86 96H42c-8 0-11-9-5-14 7-7 10-17 10-29 0-18 11-31 17-31s17 13 17 31c0 12 3 22 10 29 6 5 3 14-5 14Z" fill="#F97316"/>
      <text x="-30" y="174" font-family="Avenir Next, Helvetica, sans-serif" font-size="24" font-weight="700" fill="#0F172A">Meeting Reminder</text>
    </g>
    <path d="M425 214h190" stroke="#94A3B8" stroke-width="8" stroke-linecap="round"/>
    <path d="M600 190l42 24-42 24" fill="none" stroke="#94A3B8" stroke-width="8" stroke-linecap="round" stroke-linejoin="round"/>
    <g transform="translate(690 150)">
      <rect x="0" y="0" width="138" height="112" rx="18" fill="#0F172A"/>
      <path d="M18 112h102c10 0 18-8 18-18V34H0v60c0 10 8 18 18 18Z" fill="#1E293B"/>
      <rect x="28" y="58" width="82" height="12" rx="6" fill="#94A3B8"/>
      <rect x="28" y="82" width="60" height="12" rx="6" fill="#64748B"/>
      <text x="-4" y="174" font-family="Avenir Next, Helvetica, sans-serif" font-size="24" font-weight="700" fill="#0F172A">Applications</text>
    </g>
  </g>
</svg>
