<svg xmlns="http://www.w3.org/2000/svg" width="1600" height="900" viewBox="0 0 1600 900">
  <defs>
    <linearGradient id="bg" x1="0" y1="0" x2="1600" y2="900">
      <stop offset="0" stop-color="#ECFDF5"/>
      <stop offset="1" stop-color="#E0F2FE"/>
    </linearGradient>
    <filter id="shadow" x="-20%" y="-20%" width="140%" height="140%">
      <feDropShadow dx="0" dy="22" stdDeviation="34" flood-color="#0F172A" flood-opacity="0.2"/>
    </filter>
  </defs>
  <rect width="1600" height="900" fill="url(#bg)"/>
  <text x="120" y="160" font-family="Avenir Next, Helvetica, sans-serif" font-size="58" font-weight="800" fill="#0F172A">Menu bar control center</text>
  <text x="120" y="210" font-family="Avenir Next, Helvetica, sans-serif" font-size="26" fill="#475569">Upcoming meetings, popup timing, and launch-at-login in one compact dropdown.</text>
  <g filter="url(#shadow)" transform="translate(440 110)">
    <rect width="720" height="670" rx="28" fill="#FFFFFF"/>
    <text x="42" y="72" font-family="Avenir Next, Helvetica, sans-serif" font-size="26" font-weight="800" fill="#0F172A">Next Meeting</text>
    <text x="42" y="118" font-family="Avenir Next, Helvetica, sans-serif" font-size="38" font-weight="800" fill="#0F172A">Design Review</text>
    <text x="42" y="154" font-family="Avenir Next, Helvetica, sans-serif" font-size="22" fill="#64748B">7:30 PM - 8:00 PM</text>
    <line x1="42" y1="196" x2="678" y2="196" stroke="#E2E8F0" stroke-width="2"/>
    <text x="42" y="242" font-family="Avenir Next, Helvetica, sans-serif" font-size="24" font-weight="800" fill="#0F172A">Today</text>
    <rect x="42" y="270" width="636" height="82" rx="18" fill="#F0FDFA"/>
    <text x="70" y="318" font-family="Avenir Next, Helvetica, sans-serif" font-size="25" font-weight="700" fill="#134E4A">Design Review</text>
    <text x="490" y="318" font-family="Avenir Next, Helvetica, sans-serif" font-size="22" fill="#0F766E">7:30 PM</text>
    <rect x="42" y="366" width="636" height="82" rx="18" fill="#F8FAFC"/>
    <text x="70" y="414" font-family="Avenir Next, Helvetica, sans-serif" font-size="25" font-weight="700" fill="#334155">Weekly Sync</text>
    <text x="500" y="414" font-family="Avenir Next, Helvetica, sans-serif" font-size="22" fill="#64748B">8:15 PM</text>
    <line x1="42" y1="482" x2="678" y2="482" stroke="#E2E8F0" stroke-width="2"/>
    <text x="42" y="528" font-family="Avenir Next, Helvetica, sans-serif" font-size="24" font-weight="800" fill="#0F172A">Popup</text>
    <text x="70" y="574" font-family="Avenir Next, Helvetica, sans-serif" font-size="23" fill="#0F172A">5 minutes before</text>
    <circle cx="628" cy="566" r="20" fill="#14B8A6"/>
    <path d="M618 565l8 8 15-18" fill="none" stroke="#FFFFFF" stroke-width="5" stroke-linecap="round" stroke-linejoin="round"/>
    <text x="70" y="618" font-family="Avenir Next, Helvetica, sans-serif" font-size="23" fill="#0F172A">1 minute before</text>
    <circle cx="628" cy="610" r="20" fill="#14B8A6"/>
    <path d="M618 609l8 8 15-18" fill="none" stroke="#FFFFFF" stroke-width="5" stroke-linecap="round" stroke-linejoin="round"/>
  </g>
</svg>
